<?xml version="1.0" encoding="UTF-8"?>
<svg width="51px" height="78px" viewBox="0 0 51 78" version="1.1" xmlns="http://www.w3.org/2000/svg" xmlns:xlink="http://www.w3.org/1999/xlink">
    <!-- Generator: Sketch 48.2 (47327) - http://www.bohemiancoding.com/sketch -->
    <title>Group</title>
    <desc>Created with Sketch.</desc>
    <defs>
        <polygon id="path-1" points="0 0.695 36.0527 0.695 36.0527 71.9428 0 71.9428"></polygon>
    </defs>
    <g id="123" stroke="none" stroke-width="1" fill="none" fill-rule="evenodd" transform="translate(-32.000000, -17.000000)">
        <g id="Group" transform="translate(32.000000, 17.000000)">
            <g id="Group-3">
                <mask id="mask-2" fill="white">
                    <use xlink:href="#path-1"></use>
                </mask>
                <g id="Clip-2"></g>
                <path d="M36.0277,26.0238 C36.0187,25.8938 36.0087,25.7638 35.9997,25.6328 C35.9797,25.3858 35.9577,25.1378 35.9337,24.8918 C35.9297,24.8558 35.9257,24.8188 35.9227,24.7828 C35.1057,16.8708 31.8137,9.6938 26.8357,4.0368 L26.3617,3.5068 C25.7107,2.7948 25.0307,2.1078 24.3267,1.4478 C24.1637,1.3048 23.6627,0.8658 23.6627,0.8658 L23.6497,0.8548 C23.5467,0.7558 23.4077,0.6948 23.2537,0.6948 C23.0157,0.6948 22.8117,0.8388 22.7237,1.0448 C22.7227,1.0478 22.7217,1.0508 22.7207,1.0538 C22.6937,1.1208 22.6777,1.1938 22.6777,1.2718 C22.6777,1.2718 23.3647,8.6258 21.0507,15.9408 C20.6577,17.1818 20.1907,18.4548 19.6167,19.7318 C17.9887,22.7188 16.0847,25.5338 13.9317,28.1378 C12.7957,29.5308 11.5867,30.8728 10.3017,32.1568 C9.9577,32.5018 9.6077,32.8378 9.2557,33.1708 C8.6147,33.6978 7.9967,34.2578 7.4027,34.8518 C2.6297,39.6258 -0.0003,45.9738 -0.0003,52.7248 C-0.0003,57.3448 1.2327,61.7738 3.5387,65.6408 C3.5407,65.6428 3.5417,65.6448 3.5427,65.6468 C4.6067,67.4288 5.8977,69.0918 7.4027,70.5968 C7.5587,70.7528 7.7157,70.9058 7.8747,71.0568 C7.8937,71.0748 7.9137,71.0928 7.9327,71.1098 C8.0757,71.2458 8.2197,71.3798 8.3657,71.5108 L8.3857,71.5278 C8.4557,71.5918 8.5297,71.6488 8.6007,71.7118 C8.6437,71.7498 8.6887,71.7858 8.7317,71.8238 C8.8457,71.8988 8.9817,71.9428 9.1287,71.9428 C9.3827,71.9428 9.6067,71.8118 9.7357,71.6118 C10.3797,68.8388 11.2267,66.1118 12.2727,63.4438 C12.2757,63.4378 12.2777,63.4308 12.2797,63.4238 C12.4677,62.9458 12.6597,62.4688 12.8607,61.9938 C15.8427,54.9428 20.1117,48.6108 25.5497,43.1728 C26.3787,42.3448 27.2307,41.5468 28.0997,40.7728 C29.2647,39.6298 30.4147,38.4508 31.4857,37.1278 C33.8367,34.3268 35.0777,31.9048 35.6487,29.6628 C35.9327,28.5448 36.0477,27.4728 36.0527,26.4198 C36.0457,26.2878 36.0367,26.1558 36.0277,26.0238" id="Fill-1" fill="#474E70" mask="url(#mask-2)"></path>
            </g>
            <path d="M46.471,33.776 C46.412,33.669 46.352,33.563 46.291,33.457 C46.271,33.421 46.197,33.297 46.197,33.297 C46.098,33.121 45.911,33 45.695,33 C45.457,33 45.253,33.144 45.165,33.35 C45.164,33.353 45.163,33.356 45.162,33.359 C44.943,33.965 44.659,34.818 44.358,35.555 C43.328,38.155 42.072,40.641 40.616,42.99 C37.961,47.037 34.727,50.548 31.208,54.106 C30.898,54.401 30.591,54.699 30.287,55.003 C28.912,56.378 27.623,57.818 26.418,59.317 C26.037,59.775 25.674,60.244 25.329,60.724 C23.19,63.696 21.744,67.079 21.069,70.671 L21.08,70.553 C20.675,72.691 19.207,74.457 17.249,75.28 C17.097,75.412 17,75.606 17,75.822 C17,76.048 17.105,76.247 17.267,76.38 C17.27,76.384 17.273,76.39 17.277,76.394 C17.281,76.396 17.285,76.397 17.289,76.399 C17.41,76.49 17.56,76.547 17.724,76.547 C17.73,76.547 17.736,76.545 17.741,76.545 C18.71,76.861 19.699,77.119 20.705,77.318 C22.308,77.635 23.954,77.8 25.625,77.8 C32.376,77.8 38.723,75.171 43.497,70.397 C48.199,65.695 50.815,59.467 50.893,52.83 C50.893,52.83 50.913,52.693 50.937,52.507 C50.944,52.211 50.948,51.915 50.948,51.617 C50.948,50.458 50.893,49.312 50.79,48.179 C50.758,47.862 50.723,47.546 50.683,47.23 C50.64,46.888 50.593,46.546 50.542,46.205 C50.492,45.873 50.437,45.542 50.379,45.211 C50.323,44.891 50.263,44.57 50.198,44.251 C50.136,43.941 50.07,43.632 50.001,43.323 C49.934,43.025 49.863,42.727 49.789,42.43 C49.718,42.142 49.643,41.856 49.565,41.569 C49.49,41.294 49.412,41.02 49.331,40.745 C49.253,40.481 49.172,40.218 49.088,39.956 C49.008,39.704 48.925,39.453 48.84,39.203 C48.758,38.963 48.674,38.724 48.587,38.486 C48.505,38.259 48.42,38.032 48.333,37.807 C48.25,37.592 48.165,37.378 48.078,37.165 C47.996,36.963 47.911,36.762 47.825,36.561 C47.745,36.373 47.663,36.186 47.579,36 C47.464,35.746 47.346,35.494 47.226,35.244 C47.223,35.238 47.22,35.232 47.217,35.226 C47.098,34.979 46.975,34.733 46.851,34.488 C46.79,34.371 46.73,34.255 46.668,34.138 C46.603,34.017 46.537,33.896 46.471,33.776" id="Fill-8" fill="#15B4F1"></path>
        </g>
    </g>
</svg>