<?xml version="1.0" encoding="UTF-8"?>
<svg width="174px" height="78px" viewBox="0 0 174 78" version="1.1" xmlns="http://www.w3.org/2000/svg" xmlns:xlink="http://www.w3.org/1999/xlink">
    <!-- Generator: Sketch 49.1 (51147) - http://www.bohemiancoding.com/sketch -->
    <title>Group</title>
    <desc>Created with Sketch.</desc>
    <defs></defs>
    <g id="Page-1" stroke="none" stroke-width="1" fill="none" fill-rule="evenodd">
        <g id="Group" fill-rule="nonzero">
            <path d="M140.2,40.5 C140,40.3 139.7,40.1 139.4,40.1 L132.7,40.1 C132.1,40.1 131.5,40.6 131.4,41.2 L128.6,74.8 C128.6,75.1 128.7,75.4 128.9,75.7 C129.1,75.9 129.4,76.1 129.7,76.1 L136.5,76.1 C137.1,76.1 137.7,75.6 137.8,75 L140.6,41.4 C140.5,41.1 140.4,40.8 140.2,40.5 Z" id="Shape" fill="#FFFFFF"></path>
            <path d="M141.4,26.6 C141.2,26.4 140.9,26.2 140.6,26.2 L133.9,26.2 C133.3,26.2 132.7,26.7 132.6,27.3 L132.1,33.6 C132.1,33.9 132.2,34.2 132.4,34.5 C132.6,34.7 132.9,34.9 133.2,34.9 L140,34.9 C140.6,34.9 141.2,34.4 141.3,33.8 L141.8,27.4 C141.7,27.1 141.6,26.8 141.4,26.6 Z" id="Shape" fill="#FFFFFF"></path>
            <path d="M165.9,48.9 C165.5,48.9 165.1,48.6 165,48.2 C164.9,47.8 164.8,47.5 164.6,47.2 C164.3,46.8 164,46.4 163.7,46.2 C163.4,46 163,45.9 162.7,45.8 C162.3,45.7 162.1,45.7 161.8,45.7 C160.7,45.7 159.8,46 159.2,46.7 C158.6,47.4 158.2,48.1 158.1,48.9 C158.1,49.4 158.1,49.9 158.3,50.2 C158.5,50.6 158.8,50.9 159.3,51.2 C159.8,51.5 160.4,51.8 161.2,52 C162,52.3 163,52.6 164.1,53 C165.2,53.4 166.4,53.8 167.6,54.3 C168.8,54.8 169.9,55.5 170.8,56.3 C171.7,57.2 172.5,58.2 173,59.5 C173.5,60.8 173.7,62.3 173.6,64.2 C173.4,66.3 172.9,68.2 172,69.8 C171.1,71.4 170,72.8 168.7,73.9 C167.4,75 165.9,75.9 164.3,76.4 C162.7,77 161.1,77.2 159.5,77.2 C158.6,77.2 157.6,77.1 156.6,76.9 C155.6,76.7 154.6,76.4 153.7,76.1 C152.8,75.7 151.9,75.2 151,74.6 C150.1,74 149.4,73.2 148.7,72.3 C147.7,70.9 147,69.5 146.8,68.1 C146.6,66.7 146.5,65.4 146.5,64.3 L154.9,64.3 C155.3,64.3 155.7,64.6 155.8,65 C155.8,65.2 155.9,65.5 156,65.7 C156.1,66.3 156.4,66.8 156.7,67.3 C157,67.8 157.5,68.2 158,68.5 C158.6,68.8 159.3,69 160.2,69 C160.9,69 161.5,68.9 162.1,68.6 C162.6,68.4 163.1,68 163.4,67.7 C163.7,67.3 164,66.9 164.2,66.5 C164.4,66.1 164.5,65.7 164.5,65.3 C164.6,64.6 164.5,64.1 164.2,63.6 C164,63.1 163.5,62.7 162.9,62.3 C162.3,61.9 161.5,61.5 160.4,61.1 C159.4,60.7 158,60.3 156.5,59.7 C155.5,59.3 154.5,58.9 153.5,58.3 C152.6,57.7 151.7,57 151,56.1 C150.3,55.2 149.7,54.2 149.4,53 C149,51.8 148.9,50.5 149,49 C149.2,47.2 149.7,45.6 150.5,44.2 C151.4,42.8 152.4,41.5 153.7,40.5 C155,39.5 156.4,38.7 157.9,38.2 C159.4,37.7 161,37.4 162.4,37.4 C163.8,37.4 165.2,37.6 166.5,38.1 C167.9,38.6 169.1,39.3 170.2,40.3 C171.3,41.3 172.1,42.5 172.8,43.9 C173.4,45.3 173.7,47 173.7,48.8 L165.9,48.8 L165.9,48.9 Z" id="Shape" fill="#FFFFFF"></path>
            <path d="M97.7,61.9 L108.6,27.1 C108.7,26.7 109.1,26.4 109.6,26.4 L124,26.4 C124.6,26.4 125,26.9 125,27.5 L120.9,75.3 C120.9,75.8 120.4,76.2 119.9,76.2 L112.7,76.2 C112.1,76.2 111.7,75.7 111.7,75.1 L115.1,34.9 L101.4,75.5 C101.3,75.9 100.9,76.2 100.5,76.2 L93,76.2 C92.5,76.2 92.1,75.9 92,75.4 L83.6,34.9 L80.2,75.3 C80.2,75.8 79.7,76.2 79.2,76.2 L71.9,76.2 C71.3,76.2 70.9,75.7 70.9,75.1 L75,27.3 C75,26.8 75.5,26.4 76,26.4 L90,26.4 C90.5,26.4 90.9,26.7 91,27.2 L97.7,61.9 Z" id="Shape" fill="#FFFFFF"></path>
            <path d="M35.6,25.3 C35.6,25.1 35.6,24.9 35.6,24.8 C35.6,24.7 35.6,24.6 35.6,24.6 C35.6,24.6 35.6,24.6 35.6,24.6 C35.6,24.5 35.6,24.3 35.6,24.2 C35.6,24.1 35.6,24 35.6,23.9 C35.6,23.9 35.6,23.8 35.6,23.8 C35.6,23.8 35.6,23.7 35.6,23.7 C35.5,22.8 35.4,21.9 35.2,21.1 C35.2,21 35.2,21 35.2,20.9 C35.1,20.5 35.1,20.1 35,19.7 C35,19.6 35,19.6 35,19.5 C34.9,19.1 34.8,18.6 34.7,18.2 C34.7,18.1 34.7,18.1 34.6,18 C34.5,17.6 34.4,17.3 34.3,16.9 C34.3,16.8 34.3,16.7 34.2,16.7 C33.9,15.9 33.6,15 33.3,14.2 C33.2,14 33.1,13.7 33,13.5 C32.9,13.3 32.8,13.1 32.7,12.9 C32.7,12.9 32.7,12.8 32.6,12.8 C32.4,12.4 32.2,12 32,11.6 C32,11.6 32,11.5 31.9,11.5 C31.7,11.1 31.5,10.8 31.3,10.4 C31.3,10.3 31.2,10.3 31.2,10.2 C30.8,9.4 30.3,8.7 29.8,7.9 C29.8,7.9 29.7,7.8 29.7,7.8 C29.2,7 28.7,6.3 28.2,5.6 C28.2,5.5 27.4,4.6 27.3,4.5 C27,4.2 26.7,3.8 26.4,3.5 L26.2,3.3 L26,3 C26,3 26,3 26,3 C25.7,2.7 25.4,2.3 25.1,2 C25.1,2 25.1,2 25,1.9 C24.7,1.6 24.4,1.3 24.1,1 C24.1,1 24,0.9 24,0.9 C23.8,0.7 23.6,0.6 23.5,0.4 C23.1,-1.10772502e-13 22.4,0.3 22.4,0.9 C22.5,1.8 22.5,2.6 22.5,3.5 C22.5,6.3 22.2,10.7 20.8,15.2 C20.4,16.4 20,17.7 19.4,18.9 C17.8,21.8 15.9,24.6 13.8,27.2 C12.7,28.6 11.5,29.9 10.2,31.2 C10,31.4 9.7,31.7 9.5,31.9 C3.7,36.5 -5.68434189e-14,43.5 -5.68434189e-14,51.5 C-5.68434189e-14,55.2 0.8,58.8 2.3,62 C2.3,62 2.3,62 2.3,62 C2.4,62.1 2.4,62.2 2.5,62.4 C2.5,62.4 2.5,62.4 2.5,62.5 C2.5,62.6 2.6,62.7 2.6,62.8 C2.6,62.8 2.6,62.9 2.7,62.9 C2.7,63 2.8,63 2.8,63.1 C2.8,63.2 2.9,63.3 2.9,63.3 C2.9,63.4 3,63.4 3,63.5 C3,63.6 3.1,63.6 3.1,63.7 C3.1,63.7 3.2,63.8 3.2,63.8 C3.3,63.9 3.3,64 3.4,64.1 C3.4,64.2 3.5,64.2 3.5,64.3 C3.5,64.4 3.6,64.4 3.6,64.5 C3.6,64.6 3.7,64.6 3.7,64.7 C3.7,64.7 3.7,64.8 3.7,64.8 C3.9,65.1 4.1,65.5 4.4,65.8 C4.5,65.9 4.5,66 4.6,66 C4.7,66.1 4.8,66.3 4.9,66.4 C5,66.5 5.1,66.7 5.2,66.8 C5.2,66.8 5.3,66.9 5.3,66.9 C5.5,67.1 5.7,67.4 5.9,67.6 C6.8,68.6 7.7,69.6 8.7,70.4 C9.1,70.6 9.5,70.4 9.6,70 C10.5,66.3 11.7,62.7 13.3,59.2 C16.2,52.8 20.2,47 25.2,42 C26,41.2 26.9,40.4 27.7,39.6 C28.8,38.5 30,37.3 31,36 C33.3,33.2 34.5,30.8 35.1,28.6 C35.1,28.6 35.1,28.6 35.1,28.6 C35.2,28.2 35.3,27.7 35.4,27.3 C35.6,26.5 35.6,25.9 35.6,25.3 C35.6,25.3 35.6,25.3 35.6,25.3 Z" id="Shape" fill="#FFFFFF"></path>
            <path d="M49.8,47 C49.8,46.7 49.7,46.4 49.7,46.1 C49.7,45.8 49.6,45.4 49.6,45.1 C49.6,44.8 49.5,44.4 49.4,44.1 C49.3,43.8 49.3,43.5 49.2,43.2 C49.1,42.9 49.1,42.6 49,42.3 C48.9,42 48.9,41.7 48.8,41.4 C48.7,41.1 48.7,40.8 48.6,40.6 C48.5,40.3 48.4,40.1 48.4,39.8 C48.3,39.5 48.2,39.3 48.2,39 C48.1,38.8 48,38.5 48,38.3 C47.9,38.1 47.8,37.8 47.8,37.6 C47.7,37.4 47.6,37.2 47.5,36.9 C47.4,36.7 47.3,36.5 47.2,36.3 C47.1,36.1 47,35.9 47,35.7 C46.9,35.5 46.8,35.3 46.8,35.1 C46.7,34.9 46.6,34.6 46.5,34.4 C46.5,34.4 46.5,34.4 46.5,34.4 C46.4,34.2 46.3,33.9 46.1,33.7 C46,33.6 46,33.5 45.9,33.4 C45.8,33.3 45.8,33.2 45.7,33 C45.7,33 45.7,33 45.7,33 C45.6,32.9 45.6,32.8 45.5,32.7 C45.2,32.2 44.5,32.3 44.3,32.8 C44.3,32.9 44.2,33.1 44.1,33.2 C44,33.4 44,33.6 43.9,33.8 C43.9,33.9 43.8,34 43.8,34.1 C43.7,34.3 43.6,34.5 43.6,34.7 C40.9,41.5 36.6,47.6 31.2,52.4 C31.2,52.4 31.2,52.4 31.2,52.4 C31,52.6 30.8,52.8 30.6,53 C30.3,53.3 30,53.6 29.7,53.9 C28.3,55.3 27.1,56.7 25.9,58.2 C25.5,58.7 25.2,59.1 24.8,59.6 C22.7,62.5 21.3,65.9 20.6,69.4 L20.6,69.3 C20.4,70.3 20,71.2 19.4,72 C19.4,72 19.4,72 19.4,72 C19.1,72.4 18.8,72.7 18.4,73 C17.9,73.4 17.4,73.7 16.9,73.9 C16.4,74.1 16.4,74.8 16.9,75 C16.9,75 16.9,75 16.9,75 C16.9,75 16.9,75 16.9,75 C16.9,75 16.9,75 16.9,75 C17.7,75.3 18.6,75.6 19.5,75.8 C19.8,75.9 20.1,75.9 20.3,76 C21.4,76.2 22.5,76.4 23.6,76.4 C23.6,76.4 23.6,76.4 23.7,76.4 C23.8,76.4 23.9,76.4 23.9,76.4 C24,76.4 24,76.4 24.1,76.4 C24.1,76.4 24.2,76.4 24.2,76.4 C24.3,76.4 24.4,76.4 24.5,76.4 C24.5,76.4 24.5,76.4 24.6,76.4 C24.8,76.4 25,76.4 25.2,76.4 C25.3,76.4 25.3,76.4 25.4,76.4 C25.4,76.4 25.5,76.4 25.5,76.4 C25.6,76.4 25.7,76.4 25.8,76.4 C25.8,76.4 25.8,76.4 25.8,76.4 C25.9,76.4 26,76.4 26.1,76.4 C26.1,76.4 26.1,76.4 26.1,76.4 C26.2,76.4 26.3,76.4 26.4,76.4 C26.4,76.4 26.4,76.4 26.4,76.4 C26.5,76.4 26.6,76.4 26.7,76.4 C26.7,76.4 26.7,76.4 26.7,76.4 C26.8,76.4 26.9,76.4 26.9,76.4 C26.9,76.4 26.9,76.4 27,76.4 C27.1,76.4 27.2,76.4 27.2,76.4 C27.2,76.4 27.3,76.4 27.3,76.4 C27.4,76.4 27.4,76.4 27.5,76.4 C27.5,76.4 27.6,76.4 27.6,76.4 C27.7,76.4 27.7,76.4 27.8,76.4 C27.8,76.4 27.9,76.4 27.9,76.4 C27.9,76.4 28,76.4 28,76.4 C28.1,76.4 28.1,76.4 28.2,76.4 C28.2,76.4 28.3,76.4 28.3,76.4 C28.4,76.4 28.4,76.4 28.5,76.4 C28.5,76.4 28.5,76.4 28.6,76.4 C28.7,76.4 28.8,76.4 28.9,76.4 C28.9,76.4 28.9,76.4 28.9,76.4 C31.8,76 34.5,75 36.9,73.7 C36.9,73.7 36.9,73.7 37,73.7 C37,73.7 37.1,73.6 37.1,73.6 C37.2,73.6 37.2,73.5 37.3,73.5 C37.3,73.5 37.3,73.5 37.3,73.5 C44.9,69.2 50,61.1 50,51.8 C50,51.8 50,51.8 50,51.8 C50,51.8 50,51.8 50,51.7 C50,51.4 50,51.1 50,50.8 C50,49.2 49.9,48.1 49.8,47 Z" id="Shape" fill="#2E9ED0"></path>
        </g>
    </g>
</svg>